solid OpenSCAD_Model
  facet normal 0 0 -1
    outer loop
      vertex 25.375 -0.811142 -0.538157
      vertex 26.163 -0.38208 -0.538157
      vertex 25.734 -0.811142 -0.538157
    endloop
  endfacet
  facet normal -0 0 -1
    outer loop
      vertex 26.163 -0.38208 -0.538157
      vertex 25.375 -0.811142 -0.538157
      vertex 26.163 0 -0.538157
    endloop
  endfacet
  facet normal 0 0 -1
    outer loop
      vertex 25 -0.811142 -0.538157
      vertex 25.375 -0.811142 -0.538157
      vertex 25.2652 -1.07631 -0.538157
    endloop
  endfacet
  facet normal 0 0 -1
    outer loop
      vertex 25 -0.811142 -0.538157
      vertex 26.163 0 -0.538157
      vertex 25.375 -0.811142 -0.538157
    endloop
  endfacet
  facet normal 0 0 -1
    outer loop
      vertex 24.625 -0.811142 -0.538157
      vertex 25 -0.811142 -0.538157
      vertex 24.7348 -1.07631 -0.538157
    endloop
  endfacet
  facet normal 0 0 -1
    outer loop
      vertex 23.837 0 -0.538157
      vertex 25 -0.811142 -0.538157
      vertex 24.625 -0.811142 -0.538157
    endloop
  endfacet
  facet normal 0 0 -1
    outer loop
      vertex 23.837 -0.38208 -0.538157
      vertex 24.625 -0.811142 -0.538157
      vertex 24.266 -0.811142 -0.538157
    endloop
  endfacet
  facet normal 0 0 -1
    outer loop
      vertex 24.625 -0.811142 -0.538157
      vertex 23.837 -0.38208 -0.538157
      vertex 23.837 0 -0.538157
    endloop
  endfacet
  facet normal 0 0 -1
    outer loop
      vertex 25 -0.811142 -0.538157
      vertex 23.837 0 -0.538157
      vertex 26.163 0 -0.538157
    endloop
  endfacet
  facet normal 0 1 0
    outer loop
      vertex 26.163 0 -0.156077
      vertex 25.375 0 0.272984
      vertex 25.734 0 0.272984
    endloop
  endfacet
  facet normal 0 1 0
    outer loop
      vertex 25.375 0 0.272984
      vertex 26.163 0 -0.538157
      vertex 25 0 0.272984
    endloop
  endfacet
  facet normal 0 1 0
    outer loop
      vertex 23.837 0 -0.538157
      vertex 25 0 0.272984
      vertex 26.163 0 -0.538157
    endloop
  endfacet
  facet normal 0 1 0
    outer loop
      vertex 25.375 0 0.272984
      vertex 26.163 0 -0.156077
      vertex 26.163 0 -0.538157
    endloop
  endfacet
  facet normal 0 1 0
    outer loop
      vertex 25 0 0.272984
      vertex 23.837 0 -0.538157
      vertex 24.625 0 0.272984
    endloop
  endfacet
  facet normal -0 1 0
    outer loop
      vertex 23.837 0 -0.156077
      vertex 24.625 0 0.272984
      vertex 23.837 0 -0.538157
    endloop
  endfacet
  facet normal 0 1 0
    outer loop
      vertex 24.625 0 0.272984
      vertex 23.837 0 -0.156077
      vertex 24.266 0 0.272984
    endloop
  endfacet
  facet normal 0 1 0
    outer loop
      vertex 25.2652 0 0.538151
      vertex 25.375 0 0.272984
      vertex 25 0 0.272984
    endloop
  endfacet
  facet normal 0 1 0
    outer loop
      vertex 24.7348 0 0.538151
      vertex 25 0 0.272984
      vertex 24.625 0 0.272984
    endloop
  endfacet
  facet normal 1 0 -0
    outer loop
      vertex 26.163 0 -0.538157
      vertex 26.163 0 -0.156077
      vertex 26.163 -0.38208 -0.538157
    endloop
  endfacet
  facet normal -1 0 -0
    outer loop
      vertex 23.837 0 -0.156077
      vertex 23.837 0 -0.538157
      vertex 23.837 -0.38208 -0.538157
    endloop
  endfacet
  facet normal -0.577406 -0.577322 0.577323
    outer loop
      vertex 24.266 -0.811142 -0.538157
      vertex 24.266 0 0.272984
      vertex 23.837 -0.38208 -0.538157
    endloop
  endfacet
  facet normal -0.577405 -0.577323 0.577323
    outer loop
      vertex 24.266 0 0.272984
      vertex 23.837 0 -0.156077
      vertex 23.837 -0.38208 -0.538157
    endloop
  endfacet
  facet normal 0 -0.707106 0.707107
    outer loop
      vertex 24.266 0 0.272984
      vertex 24.625 -0.811142 -0.538157
      vertex 24.625 0 0.272984
    endloop
  endfacet
  facet normal 0 -0.707106 0.707107
    outer loop
      vertex 24.625 -0.811142 -0.538157
      vertex 24.266 0 0.272984
      vertex 24.266 -0.811142 -0.538157
    endloop
  endfacet
  facet normal -0.862929 -0.357319 0.35732
    outer loop
      vertex 24.7348 -1.07631 -0.538157
      vertex 24.7348 0 0.538151
      vertex 24.625 -0.811142 -0.538157
    endloop
  endfacet
  facet normal -0.862928 -0.35732 0.35732
    outer loop
      vertex 24.7348 0 0.538151
      vertex 24.625 0 0.272984
      vertex 24.625 -0.811142 -0.538157
    endloop
  endfacet
  facet normal 0.577304 -0.577373 0.577374
    outer loop
      vertex 25 -0.811142 -0.538157
      vertex 25 0 0.272984
      vertex 24.7348 -1.07631 -0.538157
    endloop
  endfacet
  facet normal 0.577303 -0.577374 0.577375
    outer loop
      vertex 25 0 0.272984
      vertex 24.7348 0 0.538151
      vertex 24.7348 -1.07631 -0.538157
    endloop
  endfacet
  facet normal -0.577303 -0.577373 0.577374
    outer loop
      vertex 25.2652 -1.07631 -0.538157
      vertex 25.2652 0 0.538151
      vertex 25 -0.811142 -0.538157
    endloop
  endfacet
  facet normal -0.577303 -0.577374 0.577374
    outer loop
      vertex 25.2652 0 0.538151
      vertex 25 0 0.272984
      vertex 25 -0.811142 -0.538157
    endloop
  endfacet
  facet normal 0.862929 -0.357319 0.357319
    outer loop
      vertex 25.375 -0.811142 -0.538157
      vertex 25.375 0 0.272984
      vertex 25.2652 -1.07631 -0.538157
    endloop
  endfacet
  facet normal 0.862928 -0.35732 0.35732
    outer loop
      vertex 25.375 0 0.272984
      vertex 25.2652 0 0.538151
      vertex 25.2652 -1.07631 -0.538157
    endloop
  endfacet
  facet normal 0 -0.707106 0.707107
    outer loop
      vertex 25.375 0 0.272984
      vertex 25.734 -0.811142 -0.538157
      vertex 25.734 0 0.272984
    endloop
  endfacet
  facet normal 0 -0.707106 0.707107
    outer loop
      vertex 25.734 -0.811142 -0.538157
      vertex 25.375 0 0.272984
      vertex 25.375 -0.811142 -0.538157
    endloop
  endfacet
  facet normal 0.577406 -0.577322 0.577322
    outer loop
      vertex 26.163 -0.38208 -0.538157
      vertex 26.163 0 -0.156077
      vertex 25.734 -0.811142 -0.538157
    endloop
  endfacet
  facet normal 0.577405 -0.577322 0.577323
    outer loop
      vertex 26.163 0 -0.156077
      vertex 25.734 0 0.272984
      vertex 25.734 -0.811142 -0.538157
    endloop
  endfacet
  facet normal 0 0 -1
    outer loop
      vertex -7.95125 -72.0239 -0.538157
      vertex -7.52219 -71.2359 -0.538157
      vertex -7.52219 -71.5949 -0.538157
    endloop
  endfacet
  facet normal -0 0 -1
    outer loop
      vertex -7.52219 -71.2359 -0.538157
      vertex -8.33333 -72.0239 -0.538157
      vertex -7.52219 -70.8609 -0.538157
    endloop
  endfacet
  facet normal 0 0 -1
    outer loop
      vertex -8.33333 -69.6979 -0.538157
      vertex -7.52219 -70.8609 -0.538157
      vertex -8.33333 -72.0239 -0.538157
    endloop
  endfacet
  facet normal 0 0 -1
    outer loop
      vertex -7.52219 -71.2359 -0.538157
      vertex -7.95125 -72.0239 -0.538157
      vertex -8.33333 -72.0239 -0.538157
    endloop
  endfacet
  facet normal 0 0 -1
    outer loop
      vertex -7.52219 -70.8609 -0.538157
      vertex -8.33333 -69.6979 -0.538157
      vertex -7.52219 -70.4859 -0.538157
    endloop
  endfacet
  facet normal -0 -0 -1
    outer loop
      vertex -7.95125 -69.6979 -0.538157
      vertex -7.52219 -70.4859 -0.538157
      vertex -8.33333 -69.6979 -0.538157
    endloop
  endfacet
  facet normal 0 0 -1
    outer loop
      vertex -7.52219 -70.4859 -0.538157
      vertex -7.95125 -69.6979 -0.538157
      vertex -7.52219 -70.1269 -0.538157
    endloop
  endfacet
  facet normal -0 0 -1
    outer loop
      vertex -7.25702 -71.1261 -0.538157
      vertex -7.52219 -71.2359 -0.538157
      vertex -7.52219 -70.8609 -0.538157
    endloop
  endfacet
  facet normal -0 0 -1
    outer loop
      vertex -7.25702 -70.5958 -0.538157
      vertex -7.52219 -70.8609 -0.538157
      vertex -7.52219 -70.4859 -0.538157
    endloop
  endfacet
  facet normal -1 0 0
    outer loop
      vertex -8.33333 -70.4859 0.272984
      vertex -8.33333 -69.6979 -0.156077
      vertex -8.33333 -69.6979 -0.538157
    endloop
  endfacet
  facet normal -1 0 0
    outer loop
      vertex -8.33333 -69.6979 -0.156077
      vertex -8.33333 -70.4859 0.272984
      vertex -8.33333 -70.1269 0.272984
    endloop
  endfacet
  facet normal -1 0 0
    outer loop
      vertex -8.33333 -70.4859 0.272984
      vertex -8.33333 -70.8609 0.272984
      vertex -8.33333 -70.5958 0.538151
    endloop
  endfacet
  facet normal -1 0 0
    outer loop
      vertex -8.33333 -69.6979 -0.538157
      vertex -8.33333 -70.8609 0.272984
      vertex -8.33333 -70.4859 0.272984
    endloop
  endfacet
  facet normal -1 0 0
    outer loop
      vertex -8.33333 -70.8609 0.272984
      vertex -8.33333 -71.2359 0.272984
      vertex -8.33333 -71.1261 0.538151
    endloop
  endfacet
  facet normal -1 0 0
    outer loop
      vertex -8.33333 -72.0239 -0.538157
      vertex -8.33333 -70.8609 0.272984
      vertex -8.33333 -69.6979 -0.538157
    endloop
  endfacet
  facet normal -1 -0 0
    outer loop
      vertex -8.33333 -70.8609 0.272984
      vertex -8.33333 -72.0239 -0.538157
      vertex -8.33333 -71.2359 0.272984
    endloop
  endfacet
  facet normal -1 0 0
    outer loop
      vertex -8.33333 -72.0239 -0.156077
      vertex -8.33333 -71.2359 0.272984
      vertex -8.33333 -72.0239 -0.538157
    endloop
  endfacet
  facet normal -1 -0 0
    outer loop
      vertex -8.33333 -71.2359 0.272984
      vertex -8.33333 -72.0239 -0.156077
      vertex -8.33333 -71.5949 0.272984
    endloop
  endfacet
  facet normal 0 1 0
    outer loop
      vertex -8.33333 -69.6979 -0.156077
      vertex -7.95125 -69.6979 -0.538157
      vertex -8.33333 -69.6979 -0.538157
    endloop
  endfacet
  facet normal 0 -1 0
    outer loop
      vertex -7.95125 -72.0239 -0.538157
      vertex -8.33333 -72.0239 -0.156077
      vertex -8.33333 -72.0239 -0.538157
    endloop
  endfacet
  facet normal 0.577324 -0.577404 0.577323
    outer loop
      vertex -7.95125 -72.0239 -0.538157
      vertex -7.52219 -71.5949 -0.538157
      vertex -8.33333 -71.5949 0.272984
    endloop
  endfacet
  facet normal 0.577323 -0.577405 0.577323
    outer loop
      vertex -7.95125 -72.0239 -0.538157
      vertex -8.33333 -71.5949 0.272984
      vertex -8.33333 -72.0239 -0.156077
    endloop
  endfacet
  facet normal 0.707107 0 0.707106
    outer loop
      vertex -8.33333 -71.2359 0.272984
      vertex -7.52219 -71.5949 -0.538157
      vertex -7.52219 -71.2359 -0.538157
    endloop
  endfacet
  facet normal 0.707107 0 0.707106
    outer loop
      vertex -7.52219 -71.5949 -0.538157
      vertex -8.33333 -71.2359 0.272984
      vertex -8.33333 -71.5949 0.272984
    endloop
  endfacet
  facet normal 0.357317 -0.86293 0.357318
    outer loop
      vertex -7.52219 -71.2359 -0.538157
      vertex -7.25702 -71.1261 -0.538157
      vertex -8.33333 -71.1261 0.538151
    endloop
  endfacet
  facet normal 0.35732 -0.862928 0.35732
    outer loop
      vertex -7.52219 -71.2359 -0.538157
      vertex -8.33333 -71.1261 0.538151
      vertex -8.33333 -71.2359 0.272984
    endloop
  endfacet
  facet normal 0.577372 0.577307 0.577372
    outer loop
      vertex -7.25702 -71.1261 -0.538157
      vertex -7.52219 -70.8609 -0.538157
      vertex -8.33333 -70.8609 0.272984
    endloop
  endfacet
  facet normal 0.577374 0.577303 0.577375
    outer loop
      vertex -7.25702 -71.1261 -0.538157
      vertex -8.33333 -70.8609 0.272984
      vertex -8.33333 -71.1261 0.538151
    endloop
  endfacet
  facet normal 0.577299 -0.577452 0.5773
    outer loop
      vertex -7.52219 -70.8609 -0.538157
      vertex -7.25702 -70.5958 -0.538157
      vertex -8.33333 -70.5958 0.538151
    endloop
  endfacet
  facet normal 0.577302 -0.577447 0.577301
    outer loop
      vertex -7.52219 -70.8609 -0.538157
      vertex -8.33333 -70.5958 0.538151
      vertex -8.33333 -70.8609 0.272984
    endloop
  endfacet
  facet normal 0.357559 0.86273 0.357559
    outer loop
      vertex -7.25702 -70.5958 -0.538157
      vertex -7.52219 -70.4859 -0.538157
      vertex -8.33333 -70.4859 0.272984
    endloop
  endfacet
  facet normal 0.357562 0.862727 0.357562
    outer loop
      vertex -7.25702 -70.5958 -0.538157
      vertex -8.33333 -70.4859 0.272984
      vertex -8.33333 -70.5958 0.538151
    endloop
  endfacet
  facet normal 0.707107 0 0.707106
    outer loop
      vertex -8.33333 -70.1269 0.272984
      vertex -7.52219 -70.4859 -0.538157
      vertex -7.52219 -70.1269 -0.538157
    endloop
  endfacet
  facet normal 0.707107 0 0.707106
    outer loop
      vertex -7.52219 -70.4859 -0.538157
      vertex -8.33333 -70.1269 0.272984
      vertex -8.33333 -70.4859 0.272984
    endloop
  endfacet
  facet normal 0.577323 0.577404 0.577323
    outer loop
      vertex -7.52219 -70.1269 -0.538157
      vertex -7.95125 -69.6979 -0.538157
      vertex -8.33333 -69.6979 -0.156077
    endloop
  endfacet
  facet normal 0.577323 0.577405 0.577323
    outer loop
      vertex -7.52219 -70.1269 -0.538157
      vertex -8.33333 -69.6979 -0.156077
      vertex -8.33333 -70.1269 0.272984
    endloop
  endfacet
  facet normal 0 0 -1
    outer loop
      vertex 8.70833 -0.811142 -0.538157
      vertex 9.49637 -0.38208 -0.538157
      vertex 9.06731 -0.811142 -0.538157
    endloop
  endfacet
  facet normal -0 0 -1
    outer loop
      vertex 9.49637 -0.38208 -0.538157
      vertex 8.70833 -0.811142 -0.538157
      vertex 9.49637 0 -0.538157
    endloop
  endfacet
  facet normal 0 0 -1
    outer loop
      vertex 8.33333 -0.811142 -0.538157
      vertex 8.70833 -0.811142 -0.538157
      vertex 8.59848 -1.07631 -0.538157
    endloop
  endfacet
  facet normal 0 0 -1
    outer loop
      vertex 8.33333 -0.811142 -0.538157
      vertex 9.49637 0 -0.538157
      vertex 8.70833 -0.811142 -0.538157
    endloop
  endfacet
  facet normal 0 0 -1
    outer loop
      vertex 7.95833 -0.811142 -0.538157
      vertex 8.33333 -0.811142 -0.538157
      vertex 8.06818 -1.07631 -0.538157
    endloop
  endfacet
  facet normal 0 0 -1
    outer loop
      vertex 7.17029 0 -0.538157
      vertex 8.33333 -0.811142 -0.538157
      vertex 7.95833 -0.811142 -0.538157
    endloop
  endfacet
  facet normal 0 0 -1
    outer loop
      vertex 7.17029 -0.38208 -0.538157
      vertex 7.95833 -0.811142 -0.538157
      vertex 7.59935 -0.811142 -0.538157
    endloop
  endfacet
  facet normal 0 0 -1
    outer loop
      vertex 7.95833 -0.811142 -0.538157
      vertex 7.17029 -0.38208 -0.538157
      vertex 7.17029 0 -0.538157
    endloop
  endfacet
  facet normal 0 0 -1
    outer loop
      vertex 8.33333 -0.811142 -0.538157
      vertex 7.17029 0 -0.538157
      vertex 9.49637 0 -0.538157
    endloop
  endfacet
  facet normal 0 1 0
    outer loop
      vertex 9.49637 0 -0.156077
      vertex 8.70833 0 0.272984
      vertex 9.06731 0 0.272984
    endloop
  endfacet
  facet normal 0 1 0
    outer loop
      vertex 8.70833 0 0.272984
      vertex 9.49637 0 -0.538157
      vertex 8.33333 0 0.272984
    endloop
  endfacet
  facet normal 0 1 0
    outer loop
      vertex 7.17029 0 -0.538157
      vertex 8.33333 0 0.272984
      vertex 9.49637 0 -0.538157
    endloop
  endfacet
  facet normal 0 1 0
    outer loop
      vertex 8.70833 0 0.272984
      vertex 9.49637 0 -0.156077
      vertex 9.49637 0 -0.538157
    endloop
  endfacet
  facet normal 0 1 0
    outer loop
      vertex 8.33333 0 0.272984
      vertex 7.17029 0 -0.538157
      vertex 7.95833 0 0.272984
    endloop
  endfacet
  facet normal -0 1 0
    outer loop
      vertex 7.17029 0 -0.156077
      vertex 7.95833 0 0.272984
      vertex 7.17029 0 -0.538157
    endloop
  endfacet
  facet normal 0 1 0
    outer loop
      vertex 7.95833 0 0.272984
      vertex 7.17029 0 -0.156077
      vertex 7.59935 0 0.272984
    endloop
  endfacet
  facet normal 0 1 0
    outer loop
      vertex 8.59848 0 0.538151
      vertex 8.70833 0 0.272984
      vertex 8.33333 0 0.272984
    endloop
  endfacet
  facet normal 0 1 0
    outer loop
      vertex 8.06818 0 0.538151
      vertex 8.33333 0 0.272984
      vertex 7.95833 0 0.272984
    endloop
  endfacet
  facet normal 1 0 -0
    outer loop
      vertex 9.49637 0 -0.538157
      vertex 9.49637 0 -0.156077
      vertex 9.49637 -0.38208 -0.538157
    endloop
  endfacet
  facet normal -1 0 -0
    outer loop
      vertex 7.17029 0 -0.156077
      vertex 7.17029 0 -0.538157
      vertex 7.17029 -0.38208 -0.538157
    endloop
  endfacet
  facet normal -0.577352 -0.577349 0.57735
    outer loop
      vertex 7.59935 -0.811142 -0.538157
      vertex 7.59935 0 0.272984
      vertex 7.17029 -0.38208 -0.538157
    endloop
  endfacet
  facet normal -0.577351 -0.57735 0.57735
    outer loop
      vertex 7.59935 0 0.272984
      vertex 7.17029 0 -0.156077
      vertex 7.17029 -0.38208 -0.538157
    endloop
  endfacet
  facet normal 0 -0.707106 0.707107
    outer loop
      vertex 7.59935 0 0.272984
      vertex 7.95833 -0.811142 -0.538157
      vertex 7.95833 0 0.272984
    endloop
  endfacet
  facet normal 0 -0.707106 0.707107
    outer loop
      vertex 7.95833 -0.811142 -0.538157
      vertex 7.59935 0 0.272984
      vertex 7.59935 -0.811142 -0.538157
    endloop
  endfacet
  facet normal -0.862828 -0.35744 0.357441
    outer loop
      vertex 8.06818 -1.07631 -0.538157
      vertex 8.06818 0 0.538151
      vertex 7.95833 -0.811142 -0.538157
    endloop
  endfacet
  facet normal -0.862828 -0.357441 0.357441
    outer loop
      vertex 8.06818 0 0.538151
      vertex 7.95833 0 0.272984
      vertex 7.95833 -0.811142 -0.538157
    endloop
  endfacet
  facet normal 0.577376 -0.577337 0.577338
    outer loop
      vertex 8.33333 -0.811142 -0.538157
      vertex 8.33333 0 0.272984
      vertex 8.06818 -1.07631 -0.538157
    endloop
  endfacet
  facet normal 0.577375 -0.577337 0.577338
    outer loop
      vertex 8.33333 0 0.272984
      vertex 8.06818 0 0.538151
      vertex 8.06818 -1.07631 -0.538157
    endloop
  endfacet
  facet normal -0.577376 -0.577337 0.577338
    outer loop
      vertex 8.59848 -1.07631 -0.538157
      vertex 8.59848 0 0.538151
      vertex 8.33333 -0.811142 -0.538157
    endloop
  endfacet
  facet normal -0.577375 -0.577337 0.577338
    outer loop
      vertex 8.59848 0 0.538151
      vertex 8.33333 0 0.272984
      vertex 8.33333 -0.811142 -0.538157
    endloop
  endfacet
  facet normal 0.862828 -0.35744 0.357441
    outer loop
      vertex 8.70833 -0.811142 -0.538157
      vertex 8.70833 0 0.272984
      vertex 8.59848 -1.07631 -0.538157
    endloop
  endfacet
  facet normal 0.862828 -0.357441 0.357441
    outer loop
      vertex 8.70833 0 0.272984
      vertex 8.59848 0 0.538151
      vertex 8.59848 -1.07631 -0.538157
    endloop
  endfacet
  facet normal 0 -0.707106 0.707107
    outer loop
      vertex 8.70833 0 0.272984
      vertex 9.06731 -0.811142 -0.538157
      vertex 9.06731 0 0.272984
    endloop
  endfacet
  facet normal 0 -0.707106 0.707107
    outer loop
      vertex 9.06731 -0.811142 -0.538157
      vertex 8.70833 0 0.272984
      vertex 8.70833 -0.811142 -0.538157
    endloop
  endfacet
  facet normal 0.577352 -0.577349 0.577349
    outer loop
      vertex 9.49637 -0.38208 -0.538157
      vertex 9.49637 0 -0.156077
      vertex 9.06731 -0.811142 -0.538157
    endloop
  endfacet
  facet normal 0.577351 -0.577349 0.57735
    outer loop
      vertex 9.49637 0 -0.156077
      vertex 9.06731 0 0.272984
      vertex 9.06731 -0.811142 -0.538157
    endloop
  endfacet
  facet normal 0 0 -1
    outer loop
      vertex -7.95833 -0.811142 -0.538157
      vertex -7.17029 -0.38208 -0.538157
      vertex -7.59935 -0.811142 -0.538157
    endloop
  endfacet
  facet normal -0 0 -1
    outer loop
      vertex -7.17029 -0.38208 -0.538157
      vertex -7.95833 -0.811142 -0.538157
      vertex -7.17029 0 -0.538157
    endloop
  endfacet
  facet normal 0 0 -1
    outer loop
      vertex -8.33333 -0.811142 -0.538157
      vertex -7.95833 -0.811142 -0.538157
      vertex -8.06818 -1.07631 -0.538157
    endloop
  endfacet
  facet normal 0 0 -1
    outer loop
      vertex -8.33333 -0.811142 -0.538157
      vertex -7.17029 0 -0.538157
      vertex -7.95833 -0.811142 -0.538157
    endloop
  endfacet
  facet normal 0 0 -1
    outer loop
      vertex -8.70833 -0.811142 -0.538157
      vertex -8.33333 -0.811142 -0.538157
      vertex -8.59848 -1.07631 -0.538157
    endloop
  endfacet
  facet normal 0 0 -1
    outer loop
      vertex -9.49637 0 -0.538157
      vertex -8.33333 -0.811142 -0.538157
      vertex -8.70833 -0.811142 -0.538157
    endloop
  endfacet
  facet normal 0 0 -1
    outer loop
      vertex -9.49637 -0.38208 -0.538157
      vertex -8.70833 -0.811142 -0.538157
      vertex -9.06731 -0.811142 -0.538157
    endloop
  endfacet
  facet normal 0 0 -1
    outer loop
      vertex -8.70833 -0.811142 -0.538157
      vertex -9.49637 -0.38208 -0.538157
      vertex -9.49637 0 -0.538157
    endloop
  endfacet
  facet normal 0 0 -1
    outer loop
      vertex -8.33333 -0.811142 -0.538157
      vertex -9.49637 0 -0.538157
      vertex -7.17029 0 -0.538157
    endloop
  endfacet
  facet normal 0 1 0
    outer loop
      vertex -7.17029 0 -0.156077
      vertex -7.95833 0 0.272984
      vertex -7.59935 0 0.272984
    endloop
  endfacet
  facet normal 0 1 0
    outer loop
      vertex -7.95833 0 0.272984
      vertex -7.17029 0 -0.538157
      vertex -8.33333 0 0.272984
    endloop
  endfacet
  facet normal 0 1 0
    outer loop
      vertex -9.49637 0 -0.538157
      vertex -8.33333 0 0.272984
      vertex -7.17029 0 -0.538157
    endloop
  endfacet
  facet normal 0 1 0
    outer loop
      vertex -7.95833 0 0.272984
      vertex -7.17029 0 -0.156077
      vertex -7.17029 0 -0.538157
    endloop
  endfacet
  facet normal 0 1 0
    outer loop
      vertex -8.33333 0 0.272984
      vertex -9.49637 0 -0.538157
      vertex -8.70833 0 0.272984
    endloop
  endfacet
  facet normal -0 1 0
    outer loop
      vertex -9.49637 0 -0.156077
      vertex -8.70833 0 0.272984
      vertex -9.49637 0 -0.538157
    endloop
  endfacet
  facet normal 0 1 0
    outer loop
      vertex -8.70833 0 0.272984
      vertex -9.49637 0 -0.156077
      vertex -9.06731 0 0.272984
    endloop
  endfacet
  facet normal 0 1 0
    outer loop
      vertex -8.06818 0 0.538151
      vertex -7.95833 0 0.272984
      vertex -8.33333 0 0.272984
    endloop
  endfacet
  facet normal 0 1 0
    outer loop
      vertex -8.59848 0 0.538151
      vertex -8.33333 0 0.272984
      vertex -8.70833 0 0.272984
    endloop
  endfacet
  facet normal 1 0 -0
    outer loop
      vertex -7.17029 0 -0.538157
      vertex -7.17029 0 -0.156077
      vertex -7.17029 -0.38208 -0.538157
    endloop
  endfacet
  facet normal -1 0 -0
    outer loop
      vertex -9.49637 0 -0.156077
      vertex -9.49637 0 -0.538157
      vertex -9.49637 -0.38208 -0.538157
    endloop
  endfacet
  facet normal -0.577352 -0.577349 0.57735
    outer loop
      vertex -9.06731 -0.811142 -0.538157
      vertex -9.06731 0 0.272984
      vertex -9.49637 -0.38208 -0.538157
    endloop
  endfacet
  facet normal -0.577351 -0.57735 0.57735
    outer loop
      vertex -9.06731 0 0.272984
      vertex -9.49637 0 -0.156077
      vertex -9.49637 -0.38208 -0.538157
    endloop
  endfacet
  facet normal 0 -0.707106 0.707107
    outer loop
      vertex -9.06731 0 0.272984
      vertex -8.70833 -0.811142 -0.538157
      vertex -8.70833 0 0.272984
    endloop
  endfacet
  facet normal 0 -0.707106 0.707107
    outer loop
      vertex -8.70833 -0.811142 -0.538157
      vertex -9.06731 0 0.272984
      vertex -9.06731 -0.811142 -0.538157
    endloop
  endfacet
  facet normal -0.862828 -0.35744 0.357441
    outer loop
      vertex -8.59848 -1.07631 -0.538157
      vertex -8.59848 0 0.538151
      vertex -8.70833 -0.811142 -0.538157
    endloop
  endfacet
  facet normal -0.862828 -0.357441 0.357441
    outer loop
      vertex -8.59848 0 0.538151
      vertex -8.70833 0 0.272984
      vertex -8.70833 -0.811142 -0.538157
    endloop
  endfacet
  facet normal 0.577376 -0.577337 0.577338
    outer loop
      vertex -8.33333 -0.811142 -0.538157
      vertex -8.33333 0 0.272984
      vertex -8.59848 -1.07631 -0.538157
    endloop
  endfacet
  facet normal 0.577375 -0.577337 0.577338
    outer loop
      vertex -8.33333 0 0.272984
      vertex -8.59848 0 0.538151
      vertex -8.59848 -1.07631 -0.538157
    endloop
  endfacet
  facet normal -0.577376 -0.577337 0.577338
    outer loop
      vertex -8.06818 -1.07631 -0.538157
      vertex -8.06818 0 0.538151
      vertex -8.33333 -0.811142 -0.538157
    endloop
  endfacet
  facet normal -0.577375 -0.577337 0.577338
    outer loop
      vertex -8.06818 0 0.538151
      vertex -8.33333 0 0.272984
      vertex -8.33333 -0.811142 -0.538157
    endloop
  endfacet
  facet normal 0.862828 -0.35744 0.357441
    outer loop
      vertex -7.95833 -0.811142 -0.538157
      vertex -7.95833 0 0.272984
      vertex -8.06818 -1.07631 -0.538157
    endloop
  endfacet
  facet normal 0.862828 -0.357441 0.357441
    outer loop
      vertex -7.95833 0 0.272984
      vertex -8.06818 0 0.538151
      vertex -8.06818 -1.07631 -0.538157
    endloop
  endfacet
  facet normal 0 -0.707106 0.707107
    outer loop
      vertex -7.95833 0 0.272984
      vertex -7.59935 -0.811142 -0.538157
      vertex -7.59935 0 0.272984
    endloop
  endfacet
  facet normal 0 -0.707106 0.707107
    outer loop
      vertex -7.59935 -0.811142 -0.538157
      vertex -7.95833 0 0.272984
      vertex -7.95833 -0.811142 -0.538157
    endloop
  endfacet
  facet normal 0.577352 -0.577349 0.577349
    outer loop
      vertex -7.17029 -0.38208 -0.538157
      vertex -7.17029 0 -0.156077
      vertex -7.59935 -0.811142 -0.538157
    endloop
  endfacet
  facet normal 0.577351 -0.577349 0.57735
    outer loop
      vertex -7.17029 0 -0.156077
      vertex -7.59935 0 0.272984
      vertex -7.59935 -0.811142 -0.538157
    endloop
  endfacet
  facet normal 0 0 -1
    outer loop
      vertex -17.832 32.7045 -0.538157
      vertex -17.2732 32.0025 -0.538157
      vertex -17.422 31.6506 -0.538157
    endloop
  endfacet
  facet normal 0 0 -1
    outer loop
      vertex -17.2732 32.0025 -0.538157
      vertex -17.832 32.7045 -0.538157
      vertex -17.5014 32.5648 -0.538157
    endloop
  endfacet
  facet normal 0 0 -1
    outer loop
      vertex -17.422 31.6506 -0.538157
      vertex -18.1774 32.8505 -0.538157
      vertex -17.832 32.7045 -0.538157
    endloop
  endfacet
  facet normal 0 0 -1
    outer loop
      vertex -18.1774 32.8505 -0.538157
      vertex -18.5228 32.9966 -0.538157
      vertex -18.3184 33.198 -0.538157
    endloop
  endfacet
  facet normal 0 0 -1
    outer loop
      vertex -19.5645 32.5563 -0.538157
      vertex -18.1774 32.8505 -0.538157
      vertex -17.422 31.6506 -0.538157
    endloop
  endfacet
  facet normal -0 0 -1
    outer loop
      vertex -18.1774 32.8505 -0.538157
      vertex -19.5645 32.5563 -0.538157
      vertex -18.5228 32.9966 -0.538157
    endloop
  endfacet
  facet normal 0 -0 -1
    outer loop
      vertex -19.4157 32.9082 -0.538157
      vertex -18.5228 32.9966 -0.538157
      vertex -19.5645 32.5563 -0.538157
    endloop
  endfacet
  facet normal -0 0 -1
    outer loop
      vertex -18.5228 32.9966 -0.538157
      vertex -19.4157 32.9082 -0.538157
      vertex -18.8535 33.1363 -0.538157
    endloop
  endfacet
  facet normal 0 0 -1
    outer loop
      vertex -17.8299 32.9915 -0.538157
      vertex -17.832 32.7045 -0.538157
      vertex -18.1774 32.8505 -0.538157
    endloop
  endfacet
  facet normal -0.38935 -0.92109 0
    outer loop
      vertex -17.422 31.6506 -0.538157
      vertex -17.422 31.6506 -0.156077
      vertex -18.1478 31.9574 0.272984
    endloop
  endfacet
  facet normal -0.389476 -0.921036 3.70109e-05
    outer loop
      vertex -18.8387 32.2494 0.272984
      vertex -19.1693 32.3892 0.272984
      vertex -19.5645 32.5563 -0.156077
    endloop
  endfacet
  facet normal -0.389344 -0.921092 -0.000119867
    outer loop
      vertex -18.4933 32.1034 0.272984
      vertex -18.8387 32.2494 0.272984
      vertex -19.5645 32.5563 -0.538157
    endloop
  endfacet
  facet normal -0.389344 -0.921092 0.000267713
    outer loop
      vertex -18.4933 32.1034 0.272984
      vertex -18.7375 32.2067 0.538151
      vertex -18.8387 32.2494 0.272984
    endloop
  endfacet
  facet normal -0.389249 -0.921133 0.000122663
    outer loop
      vertex -18.1478 31.9574 0.272984
      vertex -18.249 32.0002 0.538151
      vertex -18.4933 32.1034 0.272984
    endloop
  endfacet
  facet normal -0.389476 -0.921036 -0.000251674
    outer loop
      vertex -17.422 31.6506 -0.156077
      vertex -17.8172 31.8176 0.272984
      vertex -18.1478 31.9574 0.272984
    endloop
  endfacet
  facet normal -0.389249 -0.921133 0.000107151
    outer loop
      vertex -17.422 31.6506 -0.538157
      vertex -18.1478 31.9574 0.272984
      vertex -18.4933 32.1034 0.272984
    endloop
  endfacet
  facet normal -0.389369 -0.921082 -8.07783e-05
    outer loop
      vertex -17.422 31.6506 -0.538157
      vertex -18.4933 32.1034 0.272984
      vertex -19.5645 32.5563 -0.538157
    endloop
  endfacet
  facet normal -0.389458 -0.921044 0
    outer loop
      vertex -18.8387 32.2494 0.272984
      vertex -19.5645 32.5563 -0.156077
      vertex -19.5645 32.5563 -0.538157
    endloop
  endfacet
  facet normal -0.921043 0.389461 0
    outer loop
      vertex -19.5645 32.5563 -0.156077
      vertex -19.4157 32.9082 -0.538157
      vertex -19.5645 32.5563 -0.538157
    endloop
  endfacet
  facet normal 0.921043 -0.389461 0
    outer loop
      vertex -17.2732 32.0025 -0.538157
      vertex -17.422 31.6506 -0.156077
      vertex -17.422 31.6506 -0.538157
    endloop
  endfacet
  facet normal 0.75655 0.307033 0.577376
    outer loop
      vertex -17.2732 32.0025 -0.538157
      vertex -17.5014 32.5648 -0.538157
      vertex -17.8172 31.8176 0.272984
    endloop
  endfacet
  facet normal 0.756569 0.306982 0.577378
    outer loop
      vertex -17.422 31.6506 -0.156077
      vertex -17.2732 32.0025 -0.538157
      vertex -17.8172 31.8176 0.272984
    endloop
  endfacet
  facet normal 0.275241 0.651357 0.70709
    outer loop
      vertex -17.5014 32.5648 -0.538157
      vertex -17.832 32.7045 -0.538157
      vertex -18.1478 31.9574 0.272984
    endloop
  endfacet
  facet normal 0.275392 0.651249 0.70713
    outer loop
      vertex -17.8172 31.8176 0.272984
      vertex -17.5014 32.5648 -0.538157
      vertex -18.1478 31.9574 0.272984
    endloop
  endfacet
  facet normal 0.933938 -0.00683369 0.357369
    outer loop
      vertex -17.832 32.7045 -0.538157
      vertex -17.8299 32.9915 -0.538157
      vertex -18.249 32.0002 0.538151
    endloop
  endfacet
  facet normal 0.933895 -0.00662754 0.357487
    outer loop
      vertex -18.1478 31.9574 0.272984
      vertex -17.832 32.7045 -0.538157
      vertex -18.249 32.0002 0.538151
    endloop
  endfacet
  facet normal -0.306999 0.756611 0.577314
    outer loop
      vertex -17.8299 32.9915 -0.538157
      vertex -18.1774 32.8505 -0.538157
      vertex -18.4933 32.1034 0.272984
    endloop
  endfacet
  facet normal -0.307005 0.756612 0.57731
    outer loop
      vertex -18.249 32.0002 0.538151
      vertex -17.8299 32.9915 -0.538157
      vertex -18.4933 32.1034 0.272984
    endloop
  endfacet
  facet normal 0.756588 0.30699 0.577349
    outer loop
      vertex -18.1774 32.8505 -0.538157
      vertex -18.3184 33.198 -0.538157
      vertex -18.7375 32.2067 0.538151
    endloop
  endfacet
  facet normal 0.756677 0.306846 0.577309
    outer loop
      vertex -18.4933 32.1034 0.272984
      vertex -18.1774 32.8505 -0.538157
      vertex -18.7375 32.2067 0.538151
    endloop
  endfacet
  facet normal -0.655471 0.665234 0.357521
    outer loop
      vertex -18.3184 33.198 -0.538157
      vertex -18.5228 32.9966 -0.538157
      vertex -18.8387 32.2494 0.272984
    endloop
  endfacet
  facet normal -0.65564 0.665168 0.357335
    outer loop
      vertex -18.7375 32.2067 0.538151
      vertex -18.3184 33.198 -0.538157
      vertex -18.8387 32.2494 0.272984
    endloop
  endfacet
  facet normal 0.27517 0.651387 0.70709
    outer loop
      vertex -18.5228 32.9966 -0.538157
      vertex -18.8535 33.1363 -0.538157
      vertex -19.1693 32.3892 0.272984
    endloop
  endfacet
  facet normal 0.275386 0.651234 0.707147
    outer loop
      vertex -18.8387 32.2494 0.272984
      vertex -18.5228 32.9966 -0.538157
      vertex -19.1693 32.3892 0.272984
    endloop
  endfacet
  facet normal -0.306983 0.756624 0.577305
    outer loop
      vertex -18.8535 33.1363 -0.538157
      vertex -19.4157 32.9082 -0.538157
      vertex -19.5645 32.5563 -0.156077
    endloop
  endfacet
  facet normal -0.306929 0.756598 0.577368
    outer loop
      vertex -19.1693 32.3892 0.272984
      vertex -18.8535 33.1363 -0.538157
      vertex -19.5645 32.5563 -0.156077
    endloop
  endfacet
  facet normal 0 0 -1
    outer loop
      vertex -24.625 -0.811142 -0.538157
      vertex -23.837 -0.38208 -0.538157
      vertex -24.266 -0.811142 -0.538157
    endloop
  endfacet
  facet normal -0 0 -1
    outer loop
      vertex -23.837 -0.38208 -0.538157
      vertex -24.625 -0.811142 -0.538157
      vertex -23.837 0 -0.538157
    endloop
  endfacet
  facet normal 0 0 -1
    outer loop
      vertex -25 -0.811142 -0.538157
      vertex -24.625 -0.811142 -0.538157
      vertex -24.7348 -1.07631 -0.538157
    endloop
  endfacet
  facet normal 0 0 -1
    outer loop
      vertex -25 -0.811142 -0.538157
      vertex -23.837 0 -0.538157
      vertex -24.625 -0.811142 -0.538157
    endloop
  endfacet
  facet normal 0 0 -1
    outer loop
      vertex -25.375 -0.811142 -0.538157
      vertex -25 -0.811142 -0.538157
      vertex -25.2652 -1.07631 -0.538157
    endloop
  endfacet
  facet normal 0 0 -1
    outer loop
      vertex -26.163 0 -0.538157
      vertex -25 -0.811142 -0.538157
      vertex -25.375 -0.811142 -0.538157
    endloop
  endfacet
  facet normal 0 0 -1
    outer loop
      vertex -26.163 -0.38208 -0.538157
      vertex -25.375 -0.811142 -0.538157
      vertex -25.734 -0.811142 -0.538157
    endloop
  endfacet
  facet normal 0 0 -1
    outer loop
      vertex -25.375 -0.811142 -0.538157
      vertex -26.163 -0.38208 -0.538157
      vertex -26.163 0 -0.538157
    endloop
  endfacet
  facet normal 0 0 -1
    outer loop
      vertex -25 -0.811142 -0.538157
      vertex -26.163 0 -0.538157
      vertex -23.837 0 -0.538157
    endloop
  endfacet
  facet normal 0 1 0
    outer loop
      vertex -23.837 0 -0.156077
      vertex -24.625 0 0.272984
      vertex -24.266 0 0.272984
    endloop
  endfacet
  facet normal 0 1 0
    outer loop
      vertex -24.625 0 0.272984
      vertex -23.837 0 -0.538157
      vertex -25 0 0.272984
    endloop
  endfacet
  facet normal 0 1 0
    outer loop
      vertex -26.163 0 -0.538157
      vertex -25 0 0.272984
      vertex -23.837 0 -0.538157
    endloop
  endfacet
  facet normal 0 1 0
    outer loop
      vertex -24.625 0 0.272984
      vertex -23.837 0 -0.156077
      vertex -23.837 0 -0.538157
    endloop
  endfacet
  facet normal 0 1 0
    outer loop
      vertex -25 0 0.272984
      vertex -26.163 0 -0.538157
      vertex -25.375 0 0.272984
    endloop
  endfacet
  facet normal -0 1 0
    outer loop
      vertex -26.163 0 -0.156077
      vertex -25.375 0 0.272984
      vertex -26.163 0 -0.538157
    endloop
  endfacet
  facet normal 0 1 0
    outer loop
      vertex -25.375 0 0.272984
      vertex -26.163 0 -0.156077
      vertex -25.734 0 0.272984
    endloop
  endfacet
  facet normal 0 1 0
    outer loop
      vertex -24.7348 0 0.538151
      vertex -24.625 0 0.272984
      vertex -25 0 0.272984
    endloop
  endfacet
  facet normal 0 1 0
    outer loop
      vertex -25.2652 0 0.538151
      vertex -25 0 0.272984
      vertex -25.375 0 0.272984
    endloop
  endfacet
  facet normal 1 0 -0
    outer loop
      vertex -23.837 0 -0.538157
      vertex -23.837 0 -0.156077
      vertex -23.837 -0.38208 -0.538157
    endloop
  endfacet
  facet normal -1 0 -0
    outer loop
      vertex -26.163 0 -0.156077
      vertex -26.163 0 -0.538157
      vertex -26.163 -0.38208 -0.538157
    endloop
  endfacet
  facet normal -0.577406 -0.577322 0.577323
    outer loop
      vertex -25.734 -0.811142 -0.538157
      vertex -25.734 0 0.272984
      vertex -26.163 -0.38208 -0.538157
    endloop
  endfacet
  facet normal -0.577405 -0.577323 0.577323
    outer loop
      vertex -25.734 0 0.272984
      vertex -26.163 0 -0.156077
      vertex -26.163 -0.38208 -0.538157
    endloop
  endfacet
  facet normal 0 -0.707106 0.707107
    outer loop
      vertex -25.734 0 0.272984
      vertex -25.375 -0.811142 -0.538157
      vertex -25.375 0 0.272984
    endloop
  endfacet
  facet normal 0 -0.707106 0.707107
    outer loop
      vertex -25.375 -0.811142 -0.538157
      vertex -25.734 0 0.272984
      vertex -25.734 -0.811142 -0.538157
    endloop
  endfacet
  facet normal -0.862929 -0.357319 0.35732
    outer loop
      vertex -25.2652 -1.07631 -0.538157
      vertex -25.2652 0 0.538151
      vertex -25.375 -0.811142 -0.538157
    endloop
  endfacet
  facet normal -0.862928 -0.35732 0.35732
    outer loop
      vertex -25.2652 0 0.538151
      vertex -25.375 0 0.272984
      vertex -25.375 -0.811142 -0.538157
    endloop
  endfacet
  facet normal 0.577304 -0.577373 0.577374
    outer loop
      vertex -25 -0.811142 -0.538157
      vertex -25 0 0.272984
      vertex -25.2652 -1.07631 -0.538157
    endloop
  endfacet
  facet normal 0.577303 -0.577374 0.577375
    outer loop
      vertex -25 0 0.272984
      vertex -25.2652 0 0.538151
      vertex -25.2652 -1.07631 -0.538157
    endloop
  endfacet
  facet normal -0.577303 -0.577373 0.577374
    outer loop
      vertex -24.7348 -1.07631 -0.538157
      vertex -24.7348 0 0.538151
      vertex -25 -0.811142 -0.538157
    endloop
  endfacet
  facet normal -0.577303 -0.577374 0.577374
    outer loop
      vertex -24.7348 0 0.538151
      vertex -25 0 0.272984
      vertex -25 -0.811142 -0.538157
    endloop
  endfacet
  facet normal 0.862929 -0.357319 0.357319
    outer loop
      vertex -24.625 -0.811142 -0.538157
      vertex -24.625 0 0.272984
      vertex -24.7348 -1.07631 -0.538157
    endloop
  endfacet
  facet normal 0.862928 -0.35732 0.35732
    outer loop
      vertex -24.625 0 0.272984
      vertex -24.7348 0 0.538151
      vertex -24.7348 -1.07631 -0.538157
    endloop
  endfacet
  facet normal 0 -0.707106 0.707107
    outer loop
      vertex -24.625 0 0.272984
      vertex -24.266 -0.811142 -0.538157
      vertex -24.266 0 0.272984
    endloop
  endfacet
  facet normal 0 -0.707106 0.707107
    outer loop
      vertex -24.266 -0.811142 -0.538157
      vertex -24.625 0 0.272984
      vertex -24.625 -0.811142 -0.538157
    endloop
  endfacet
  facet normal 0.577406 -0.577322 0.577322
    outer loop
      vertex -23.837 -0.38208 -0.538157
      vertex -23.837 0 -0.156077
      vertex -24.266 -0.811142 -0.538157
    endloop
  endfacet
  facet normal 0.577405 -0.577322 0.577323
    outer loop
      vertex -23.837 0 -0.156077
      vertex -24.266 0 0.272984
      vertex -24.266 -0.811142 -0.538157
    endloop
  endfacet
  facet normal 0 0 -1
    outer loop
      vertex -0.811142 -70.8609 -0.538157
      vertex -1.07631 -70.5958 -0.538157
      vertex -0.811142 -70.4859 -0.538157
    endloop
  endfacet
  facet normal 0 0 -1
    outer loop
      vertex -0.811142 -71.2359 -0.538157
      vertex -1.07631 -71.1261 -0.538157
      vertex -0.811142 -70.8609 -0.538157
    endloop
  endfacet
  facet normal 0 0 -1
    outer loop
      vertex -0.811142 -71.2359 -0.538157
      vertex 0 -72.0239 -0.538157
      vertex -0.38208 -72.0239 -0.538157
    endloop
  endfacet
  facet normal 0 0 -1
    outer loop
      vertex 0 -72.0239 -0.538157
      vertex -0.811142 -70.8609 -0.538157
      vertex 0 -69.6979 -0.538157
    endloop
  endfacet
  facet normal 0 0 -1
    outer loop
      vertex -0.811142 -71.2359 -0.538157
      vertex -0.38208 -72.0239 -0.538157
      vertex -0.811142 -71.5949 -0.538157
    endloop
  endfacet
  facet normal 0 0 -1
    outer loop
      vertex 0 -72.0239 -0.538157
      vertex -0.811142 -71.2359 -0.538157
      vertex -0.811142 -70.8609 -0.538157
    endloop
  endfacet
  facet normal 0 0 -1
    outer loop
      vertex -0.811142 -70.4859 -0.538157
      vertex 0 -69.6979 -0.538157
      vertex -0.811142 -70.8609 -0.538157
    endloop
  endfacet
  facet normal -0 0 -1
    outer loop
      vertex 0 -69.6979 -0.538157
      vertex -0.811142 -70.4859 -0.538157
      vertex -0.38208 -69.6979 -0.538157
    endloop
  endfacet
  facet normal 0 0 -1
    outer loop
      vertex -0.38208 -69.6979 -0.538157
      vertex -0.811142 -70.4859 -0.538157
      vertex -0.811142 -70.1269 -0.538157
    endloop
  endfacet
  facet normal 1 -0 0
    outer loop
      vertex 0 -70.4859 0.272984
      vertex 0 -69.6979 -0.156077
      vertex 0 -70.1269 0.272984
    endloop
  endfacet
  facet normal 1 0 0
    outer loop
      vertex 0 -69.6979 -0.156077
      vertex 0 -70.4859 0.272984
      vertex 0 -69.6979 -0.538157
    endloop
  endfacet
  facet normal 1 0 0
    outer loop
      vertex 0 -70.8609 0.272984
      vertex 0 -70.4859 0.272984
      vertex 0 -70.5958 0.538151
    endloop
  endfacet
  facet normal 1 -0 0
    outer loop
      vertex 0 -70.8609 0.272984
      vertex 0 -69.6979 -0.538157
      vertex 0 -70.4859 0.272984
    endloop
  endfacet
  facet normal 1 0 0
    outer loop
      vertex 0 -71.2359 0.272984
      vertex 0 -70.8609 0.272984
      vertex 0 -71.1261 0.538151
    endloop
  endfacet
  facet normal 1 0 0
    outer loop
      vertex 0 -72.0239 -0.538157
      vertex 0 -70.8609 0.272984
      vertex 0 -71.2359 0.272984
    endloop
  endfacet
  facet normal 1 0 0
    outer loop
      vertex 0 -72.0239 -0.156077
      vertex 0 -71.2359 0.272984
      vertex 0 -71.5949 0.272984
    endloop
  endfacet
  facet normal 1 0 0
    outer loop
      vertex 0 -71.2359 0.272984
      vertex 0 -72.0239 -0.156077
      vertex 0 -72.0239 -0.538157
    endloop
  endfacet
  facet normal 1 0 0
    outer loop
      vertex 0 -70.8609 0.272984
      vertex 0 -72.0239 -0.538157
      vertex 0 -69.6979 -0.538157
    endloop
  endfacet
  facet normal 0 -1 0
    outer loop
      vertex 0 -72.0239 -0.538157
      vertex 0 -72.0239 -0.156077
      vertex -0.38208 -72.0239 -0.538157
    endloop
  endfacet
  facet normal 0 1 0
    outer loop
      vertex 0 -69.6979 -0.156077
      vertex 0 -69.6979 -0.538157
      vertex -0.38208 -69.6979 -0.538157
    endloop
  endfacet
  facet normal -0.577322 0.577406 0.577323
    outer loop
      vertex 0 -70.1269 0.272984
      vertex -0.38208 -69.6979 -0.538157
      vertex -0.811142 -70.1269 -0.538157
    endloop
  endfacet
  facet normal -0.577323 0.577405 0.577323
    outer loop
      vertex 0 -70.1269 0.272984
      vertex 0 -69.6979 -0.156077
      vertex -0.38208 -69.6979 -0.538157
    endloop
  endfacet
  facet normal -0.707106 0 0.707107
    outer loop
      vertex -0.811142 -70.1269 -0.538157
      vertex 0 -70.4859 0.272984
      vertex 0 -70.1269 0.272984
    endloop
  endfacet
  facet normal -0.707106 0 0.707107
    outer loop
      vertex 0 -70.4859 0.272984
      vertex -0.811142 -70.1269 -0.538157
      vertex -0.811142 -70.4859 -0.538157
    endloop
  endfacet
  facet normal -0.357561 0.862728 0.357562
    outer loop
      vertex 0 -70.5958 0.538151
      vertex -0.811142 -70.4859 -0.538157
      vertex -1.07631 -70.5958 -0.538157
    endloop
  endfacet
  facet normal -0.357562 0.862727 0.357562
    outer loop
      vertex 0 -70.5958 0.538151
      vertex 0 -70.4859 0.272984
      vertex -0.811142 -70.4859 -0.538157
    endloop
  endfacet
  facet normal -0.577301 -0.577449 0.577301
    outer loop
      vertex -0.811142 -70.8609 -0.538157
      vertex 0 -70.8609 0.272984
      vertex -1.07631 -70.5958 -0.538157
    endloop
  endfacet
  facet normal -0.577301 -0.577448 0.577302
    outer loop
      vertex 0 -70.8609 0.272984
      vertex 0 -70.5958 0.538151
      vertex -1.07631 -70.5958 -0.538157
    endloop
  endfacet
  facet normal -0.577373 0.577303 0.577374
    outer loop
      vertex 0 -71.1261 0.538151
      vertex -0.811142 -70.8609 -0.538157
      vertex -1.07631 -71.1261 -0.538157
    endloop
  endfacet
  facet normal -0.577374 0.577303 0.577374
    outer loop
      vertex 0 -71.1261 0.538151
      vertex 0 -70.8609 0.272984
      vertex -0.811142 -70.8609 -0.538157
    endloop
  endfacet
  facet normal -0.357319 -0.862929 0.357319
    outer loop
      vertex -0.811142 -71.2359 -0.538157
      vertex 0 -71.2359 0.272984
      vertex -1.07631 -71.1261 -0.538157
    endloop
  endfacet
  facet normal -0.35732 -0.862928 0.35732
    outer loop
      vertex 0 -71.2359 0.272984
      vertex 0 -71.1261 0.538151
      vertex -1.07631 -71.1261 -0.538157
    endloop
  endfacet
  facet normal -0.707106 0 0.707107
    outer loop
      vertex -0.811142 -71.2359 -0.538157
      vertex 0 -71.5949 0.272984
      vertex 0 -71.2359 0.272984
    endloop
  endfacet
  facet normal -0.707106 0 0.707107
    outer loop
      vertex 0 -71.5949 0.272984
      vertex -0.811142 -71.2359 -0.538157
      vertex -0.811142 -71.5949 -0.538157
    endloop
  endfacet
  facet normal -0.577322 -0.577406 0.577322
    outer loop
      vertex -0.38208 -72.0239 -0.538157
      vertex 0 -72.0239 -0.156077
      vertex -0.811142 -71.5949 -0.538157
    endloop
  endfacet
  facet normal -0.577322 -0.577405 0.577323
    outer loop
      vertex 0 -72.0239 -0.156077
      vertex 0 -71.5949 0.272984
      vertex -0.811142 -71.5949 -0.538157
    endloop
  endfacet
  facet normal 0 0 -1
    outer loop
      vertex 8.71541 -72.0239 -0.538157
      vertex 9.14447 -71.2359 -0.538157
      vertex 9.14447 -71.5949 -0.538157
    endloop
  endfacet
  facet normal -0 0 -1
    outer loop
      vertex 9.14447 -71.2359 -0.538157
      vertex 8.33333 -72.0239 -0.538157
      vertex 9.14447 -70.8609 -0.538157
    endloop
  endfacet
  facet normal 0 0 -1
    outer loop
      vertex 8.33333 -69.6979 -0.538157
      vertex 9.14447 -70.8609 -0.538157
      vertex 8.33333 -72.0239 -0.538157
    endloop
  endfacet
  facet normal 0 0 -1
    outer loop
      vertex 9.14447 -71.2359 -0.538157
      vertex 8.71541 -72.0239 -0.538157
      vertex 8.33333 -72.0239 -0.538157
    endloop
  endfacet
  facet normal 0 0 -1
    outer loop
      vertex 9.14447 -70.8609 -0.538157
      vertex 8.33333 -69.6979 -0.538157
      vertex 9.14447 -70.4859 -0.538157
    endloop
  endfacet
  facet normal -0 -0 -1
    outer loop
      vertex 8.71541 -69.6979 -0.538157
      vertex 9.14447 -70.4859 -0.538157
      vertex 8.33333 -69.6979 -0.538157
    endloop
  endfacet
  facet normal 0 0 -1
    outer loop
      vertex 9.14447 -70.4859 -0.538157
      vertex 8.71541 -69.6979 -0.538157
      vertex 9.14447 -70.1269 -0.538157
    endloop
  endfacet
  facet normal -0 0 -1
    outer loop
      vertex 9.40964 -71.1261 -0.538157
      vertex 9.14447 -71.2359 -0.538157
      vertex 9.14447 -70.8609 -0.538157
    endloop
  endfacet
  facet normal -0 0 -1
    outer loop
      vertex 9.40964 -70.5958 -0.538157
      vertex 9.14447 -70.8609 -0.538157
      vertex 9.14447 -70.4859 -0.538157
    endloop
  endfacet
  facet normal -1 0 0
    outer loop
      vertex 8.33333 -70.4859 0.272984
      vertex 8.33333 -69.6979 -0.156077
      vertex 8.33333 -69.6979 -0.538157
    endloop
  endfacet
  facet normal -1 0 0
    outer loop
      vertex 8.33333 -69.6979 -0.156077
      vertex 8.33333 -70.4859 0.272984
      vertex 8.33333 -70.1269 0.272984
    endloop
  endfacet
  facet normal -1 0 0
    outer loop
      vertex 8.33333 -70.4859 0.272984
      vertex 8.33333 -70.8609 0.272984
      vertex 8.33333 -70.5958 0.538151
    endloop
  endfacet
  facet normal -1 0 0
    outer loop
      vertex 8.33333 -69.6979 -0.538157
      vertex 8.33333 -70.8609 0.272984
      vertex 8.33333 -70.4859 0.272984
    endloop
  endfacet
  facet normal -1 0 0
    outer loop
      vertex 8.33333 -70.8609 0.272984
      vertex 8.33333 -71.2359 0.272984
      vertex 8.33333 -71.1261 0.538151
    endloop
  endfacet
  facet normal -1 0 0
    outer loop
      vertex 8.33333 -72.0239 -0.538157
      vertex 8.33333 -70.8609 0.272984
      vertex 8.33333 -69.6979 -0.538157
    endloop
  endfacet
  facet normal -1 -0 0
    outer loop
      vertex 8.33333 -70.8609 0.272984
      vertex 8.33333 -72.0239 -0.538157
      vertex 8.33333 -71.2359 0.272984
    endloop
  endfacet
  facet normal -1 0 0
    outer loop
      vertex 8.33333 -72.0239 -0.156077
      vertex 8.33333 -71.2359 0.272984
      vertex 8.33333 -72.0239 -0.538157
    endloop
  endfacet
  facet normal -1 -0 0
    outer loop
      vertex 8.33333 -71.2359 0.272984
      vertex 8.33333 -72.0239 -0.156077
      vertex 8.33333 -71.5949 0.272984
    endloop
  endfacet
  facet normal 0 1 0
    outer loop
      vertex 8.33333 -69.6979 -0.156077
      vertex 8.71541 -69.6979 -0.538157
      vertex 8.33333 -69.6979 -0.538157
    endloop
  endfacet
  facet normal 0 -1 0
    outer loop
      vertex 8.71541 -72.0239 -0.538157
      vertex 8.33333 -72.0239 -0.156077
      vertex 8.33333 -72.0239 -0.538157
    endloop
  endfacet
  facet normal 0.577324 -0.577404 0.577323
    outer loop
      vertex 8.71541 -72.0239 -0.538157
      vertex 9.14447 -71.5949 -0.538157
      vertex 8.33333 -71.5949 0.272984
    endloop
  endfacet
  facet normal 0.577323 -0.577405 0.577323
    outer loop
      vertex 8.71541 -72.0239 -0.538157
      vertex 8.33333 -71.5949 0.272984
      vertex 8.33333 -72.0239 -0.156077
    endloop
  endfacet
  facet normal 0.707107 0 0.707106
    outer loop
      vertex 8.33333 -71.2359 0.272984
      vertex 9.14447 -71.5949 -0.538157
      vertex 9.14447 -71.2359 -0.538157
    endloop
  endfacet
  facet normal 0.707107 0 0.707106
    outer loop
      vertex 9.14447 -71.5949 -0.538157
      vertex 8.33333 -71.2359 0.272984
      vertex 8.33333 -71.5949 0.272984
    endloop
  endfacet
  facet normal 0.357317 -0.86293 0.357318
    outer loop
      vertex 9.14447 -71.2359 -0.538157
      vertex 9.40964 -71.1261 -0.538157
      vertex 8.33333 -71.1261 0.538151
    endloop
  endfacet
  facet normal 0.35732 -0.862928 0.35732
    outer loop
      vertex 9.14447 -71.2359 -0.538157
      vertex 8.33333 -71.1261 0.538151
      vertex 8.33333 -71.2359 0.272984
    endloop
  endfacet
  facet normal 0.577372 0.577307 0.577372
    outer loop
      vertex 9.40964 -71.1261 -0.538157
      vertex 9.14447 -70.8609 -0.538157
      vertex 8.33333 -70.8609 0.272984
    endloop
  endfacet
  facet normal 0.577374 0.577303 0.577375
    outer loop
      vertex 9.40964 -71.1261 -0.538157
      vertex 8.33333 -70.8609 0.272984
      vertex 8.33333 -71.1261 0.538151
    endloop
  endfacet
  facet normal 0.577299 -0.577452 0.5773
    outer loop
      vertex 9.14447 -70.8609 -0.538157
      vertex 9.40964 -70.5958 -0.538157
      vertex 8.33333 -70.5958 0.538151
    endloop
  endfacet
  facet normal 0.577302 -0.577447 0.577301
    outer loop
      vertex 9.14447 -70.8609 -0.538157
      vertex 8.33333 -70.5958 0.538151
      vertex 8.33333 -70.8609 0.272984
    endloop
  endfacet
  facet normal 0.357559 0.86273 0.357559
    outer loop
      vertex 9.40964 -70.5958 -0.538157
      vertex 9.14447 -70.4859 -0.538157
      vertex 8.33333 -70.4859 0.272984
    endloop
  endfacet
  facet normal 0.357562 0.862727 0.357562
    outer loop
      vertex 9.40964 -70.5958 -0.538157
      vertex 8.33333 -70.4859 0.272984
      vertex 8.33333 -70.5958 0.538151
    endloop
  endfacet
  facet normal 0.707107 0 0.707106
    outer loop
      vertex 8.33333 -70.1269 0.272984
      vertex 9.14447 -70.4859 -0.538157
      vertex 9.14447 -70.1269 -0.538157
    endloop
  endfacet
  facet normal 0.707107 0 0.707106
    outer loop
      vertex 9.14447 -70.4859 -0.538157
      vertex 8.33333 -70.1269 0.272984
      vertex 8.33333 -70.4859 0.272984
    endloop
  endfacet
  facet normal 0.577323 0.577404 0.577323
    outer loop
      vertex 9.14447 -70.1269 -0.538157
      vertex 8.71541 -69.6979 -0.538157
      vertex 8.33333 -69.6979 -0.156077
    endloop
  endfacet
  facet normal 0.577323 0.577405 0.577323
    outer loop
      vertex 9.14447 -70.1269 -0.538157
      vertex 8.33333 -69.6979 -0.156077
      vertex 8.33333 -70.1269 0.272984
    endloop
  endfacet
  facet normal 0 0 -1
    outer loop
      vertex 19.2666 32.5511 -0.538157
      vertex 19.6644 31.7468 -0.538157
      vertex 19.4445 31.4343 -0.538157
    endloop
  endfacet
  facet normal 0 0 -1
    outer loop
      vertex 19.6644 31.7468 -0.538157
      vertex 19.2666 32.5511 -0.538157
      vertex 19.5603 32.3446 -0.538157
    endloop
  endfacet
  facet normal 0 0 -1
    outer loop
      vertex 19.4445 31.4343 -0.538157
      vertex 18.9599 32.7669 -0.538157
      vertex 19.2666 32.5511 -0.538157
    endloop
  endfacet
  facet normal 0 0 -1
    outer loop
      vertex 18.9599 32.7669 -0.538157
      vertex 18.6532 32.9826 -0.538157
      vertex 18.8956 33.1363 -0.538157
    endloop
  endfacet
  facet normal 0 0 -1
    outer loop
      vertex 17.542 32.7725 -0.538157
      vertex 18.9599 32.7669 -0.538157
      vertex 19.4445 31.4343 -0.538157
    endloop
  endfacet
  facet normal 0 0 -1
    outer loop
      vertex 18.9599 32.7669 -0.538157
      vertex 17.542 32.7725 -0.538157
      vertex 18.6532 32.9826 -0.538157
    endloop
  endfacet
  facet normal 0 -0 -1
    outer loop
      vertex 17.7618 33.0851 -0.538157
      vertex 18.6532 32.9826 -0.538157
      vertex 17.542 32.7725 -0.538157
    endloop
  endfacet
  facet normal 0 0 -1
    outer loop
      vertex 18.6532 32.9826 -0.538157
      vertex 17.7618 33.0851 -0.538157
      vertex 18.3596 33.1891 -0.538157
    endloop
  endfacet
  facet normal 0 0 -1
    outer loop
      vertex 19.3294 32.8312 -0.538157
      vertex 19.2666 32.5511 -0.538157
      vertex 18.9599 32.7669 -0.538157
    endloop
  endfacet
  facet normal -0.575377 -0.817888 0
    outer loop
      vertex 19.4445 31.4343 -0.538157
      vertex 19.4445 31.4343 -0.156077
      vertex 18.8 31.8877 0.272984
    endloop
  endfacet
  facet normal -0.575293 -0.817947 2.40244e-06
    outer loop
      vertex 18.1865 32.3192 0.272984
      vertex 17.8929 32.5257 0.272984
      vertex 17.542 32.7725 -0.156077
    endloop
  endfacet
  facet normal -0.575322 -0.817927 3.50365e-05
    outer loop
      vertex 18.4933 32.1034 0.272984
      vertex 18.1865 32.3192 0.272984
      vertex 17.542 32.7725 -0.538157
    endloop
  endfacet
  facet normal -0.575322 -0.817927 0.000107176
    outer loop
      vertex 18.4933 32.1034 0.272984
      vertex 18.2764 32.256 0.538151
      vertex 18.1865 32.3192 0.272984
    endloop
  endfacet
  facet normal -0.575269 -0.817964 -8.03615e-05
    outer loop
      vertex 18.8 31.8877 0.272984
      vertex 18.7101 31.9509 0.538151
      vertex 18.4933 32.1034 0.272984
    endloop
  endfacet
  facet normal -0.57548 -0.817816 -0.000230207
    outer loop
      vertex 19.4445 31.4343 -0.156077
      vertex 19.0936 31.6811 0.272984
      vertex 18.8 31.8877 0.272984
    endloop
  endfacet
  facet normal -0.575269 -0.817964 0.000128657
    outer loop
      vertex 19.4445 31.4343 -0.538157
      vertex 18.8 31.8877 0.272984
      vertex 18.4933 32.1034 0.272984
    endloop
  endfacet
  facet normal -0.575322 -0.817927 3.54637e-05
    outer loop
      vertex 19.4445 31.4343 -0.538157
      vertex 18.4933 32.1034 0.272984
      vertex 17.542 32.7725 -0.538157
    endloop
  endfacet
  facet normal -0.575292 -0.817948 0
    outer loop
      vertex 18.1865 32.3192 0.272984
      vertex 17.542 32.7725 -0.156077
      vertex 17.542 32.7725 -0.538157
    endloop
  endfacet
  facet normal -0.818025 0.575182 0
    outer loop
      vertex 17.542 32.7725 -0.156077
      vertex 17.7618 33.0851 -0.538157
      vertex 17.542 32.7725 -0.538157
    endloop
  endfacet
  facet normal 0.817816 -0.57548 0
    outer loop
      vertex 19.6644 31.7468 -0.538157
      vertex 19.4445 31.4343 -0.156077
      vertex 19.4445 31.4343 -0.538157
    endloop
  endfacet
  facet normal 0.80437 0.140072 0.577381
    outer loop
      vertex 19.6644 31.7468 -0.538157
      vertex 19.5603 32.3446 -0.538157
      vertex 19.0936 31.6811 0.272984
    endloop
  endfacet
  facet normal 0.804396 0.139906 0.577385
    outer loop
      vertex 19.4445 31.4343 -0.156077
      vertex 19.6644 31.7468 -0.538157
      vertex 19.0936 31.6811 0.272984
    endloop
  endfacet
  facet normal 0.406687 0.578421 0.707131
    outer loop
      vertex 19.2666 32.5511 -0.538157
      vertex 19.0936 31.6811 0.272984
      vertex 19.5603 32.3446 -0.538157
    endloop
  endfacet
  facet normal 0.406946 0.578313 0.707071
    outer loop
      vertex 19.0936 31.6811 0.272984
      vertex 19.2666 32.5511 -0.538157
      vertex 18.8 31.8877 0.272984
    endloop
  endfacet
  facet normal 0.911374 -0.204335 0.357275
    outer loop
      vertex 19.2666 32.5511 -0.538157
      vertex 19.3294 32.8312 -0.538157
      vertex 18.7101 31.9509 0.538151
    endloop
  endfacet
  facet normal 0.911376 -0.203819 0.357564
    outer loop
      vertex 18.8 31.8877 0.272984
      vertex 19.2666 32.5511 -0.538157
      vertex 18.7101 31.9509 0.538151
    endloop
  endfacet
  facet normal -0.139973 0.804352 0.577429
    outer loop
      vertex 19.3294 32.8312 -0.538157
      vertex 18.9599 32.7669 -0.538157
      vertex 18.4933 32.1034 0.272984
    endloop
  endfacet
  facet normal -0.140201 0.804431 0.577264
    outer loop
      vertex 18.7101 31.9509 0.538151
      vertex 19.3294 32.8312 -0.538157
      vertex 18.4933 32.1034 0.272984
    endloop
  endfacet
  facet normal 0.804428 0.140024 0.577311
    outer loop
      vertex 18.9599 32.7669 -0.538157
      vertex 18.8956 33.1363 -0.538157
      vertex 18.2764 32.256 0.538151
    endloop
  endfacet
  facet normal 0.804394 0.140122 0.577336
    outer loop
      vertex 18.4933 32.1034 0.272984
      vertex 18.9599 32.7669 -0.538157
      vertex 18.2764 32.256 0.538151
    endloop
  endfacet
  facet normal -0.500142 0.788773 0.357343
    outer loop
      vertex 18.8956 33.1363 -0.538157
      vertex 18.6532 32.9826 -0.538157
      vertex 18.1865 32.3192 0.272984
    endloop
  endfacet
  facet normal -0.49998 0.7888 0.357512
    outer loop
      vertex 18.2764 32.256 0.538151
      vertex 18.8956 33.1363 -0.538157
      vertex 18.1865 32.3192 0.272984
    endloop
  endfacet
  facet normal 0.4068 0.578385 0.707096
    outer loop
      vertex 18.6532 32.9826 -0.538157
      vertex 18.3596 33.1891 -0.538157
      vertex 17.8929 32.5257 0.272984
    endloop
  endfacet
  facet normal 0.4068 0.578385 0.707096
    outer loop
      vertex 18.1865 32.3192 0.272984
      vertex 18.6532 32.9826 -0.538157
      vertex 17.8929 32.5257 0.272984
    endloop
  endfacet
  facet normal -0.139923 0.804285 0.577535
    outer loop
      vertex 18.3596 33.1891 -0.538157
      vertex 17.7618 33.0851 -0.538157
      vertex 17.542 32.7725 -0.156077
    endloop
  endfacet
  facet normal -0.140106 0.804425 0.577296
    outer loop
      vertex 17.8929 32.5257 0.272984
      vertex 18.3596 33.1891 -0.538157
      vertex 17.542 32.7725 -0.156077
    endloop
  endfacet
  facet normal 0 0 -1
    outer loop
      vertex 9.53662 48.718 -0.538157
      vertex 10.4274 48.8258 -0.538157
      vertex 10.6491 48.5146 -0.538157
    endloop
  endfacet
  facet normal -0 0 -1
    outer loop
      vertex 10.4274 48.8258 -0.538157
      vertex 9.53662 48.718 -0.538157
      vertex 9.829 48.9263 -0.538157
    endloop
  endfacet
  facet normal -0 0 -1
    outer loop
      vertex 9.53662 48.718 -0.538157
      vertex 9.2312 48.5004 -0.538157
      vertex 9.2933 48.8702 -0.538157
    endloop
  endfacet
  facet normal -0 0 -1
    outer loop
      vertex 10.6491 48.5146 -0.538157
      vertex 9.2312 48.5004 -0.538157
      vertex 9.53662 48.718 -0.538157
    endloop
  endfacet
  facet normal 0 0 -1
    outer loop
      vertex 8.7546 47.1649 -0.538157
      vertex 9.2312 48.5004 -0.538157
      vertex 10.6491 48.5146 -0.538157
    endloop
  endfacet
  facet normal 0 0 -1
    outer loop
      vertex 9.2312 48.5004 -0.538157
      vertex 8.7546 47.1649 -0.538157
      vertex 8.92578 48.2828 -0.538157
    endloop
  endfacet
  facet normal 0 0 -1
    outer loop
      vertex 8.53291 47.4761 -0.538157
      vertex 8.92578 48.2828 -0.538157
      vertex 8.7546 47.1649 -0.538157
    endloop
  endfacet
  facet normal 0 0 -1
    outer loop
      vertex 8.92578 48.2828 -0.538157
      vertex 8.53291 47.4761 -0.538157
      vertex 8.63341 48.0745 -0.538157
    endloop
  endfacet
  facet normal -0 0 -1
    outer loop
      vertex 9.2312 48.5004 -0.538157
      vertex 8.92578 48.2828 -0.538157
      vertex 8.86139 48.5625 -0.538157
    endloop
  endfacet
  facet normal 0.58029 -0.81441 0
    outer loop
      vertex 10.6491 48.5146 -0.538157
      vertex 10.6491 48.5146 -0.156077
      vertex 10.0073 48.0573 0.272984
    endloop
  endfacet
  facet normal 0.580236 -0.814448 7.91083e-05
    outer loop
      vertex 9.39643 47.6222 0.272984
      vertex 9.10405 47.4139 0.272984
      vertex 8.7546 47.1649 -0.156077
    endloop
  endfacet
  facet normal 0.580254 -0.814436 2.09018e-05
    outer loop
      vertex 9.70185 47.8398 0.272984
      vertex 9.39643 47.6222 0.272984
      vertex 8.7546 47.1649 -0.538157
    endloop
  endfacet
  facet normal 0.580254 -0.814436 -0.000113053
    outer loop
      vertex 9.70185 47.8398 0.272984
      vertex 9.48589 47.6859 0.538151
      vertex 9.39643 47.6222 0.272984
    endloop
  endfacet
  facet normal 0.580039 -0.814588 9.137e-05
    outer loop
      vertex 10.0073 48.0573 0.272984
      vertex 9.9178 47.9936 0.538151
      vertex 9.70185 47.8398 0.272984
    endloop
  endfacet
  facet normal 0.580342 -0.814373 0.000117856
    outer loop
      vertex 10.6491 48.5146 -0.156077
      vertex 10.2996 48.2656 0.272984
      vertex 10.0073 48.0573 0.272984
    endloop
  endfacet
  facet normal 0.580039 -0.814588 -0.00029848
    outer loop
      vertex 10.6491 48.5146 -0.538157
      vertex 10.0073 48.0573 0.272984
      vertex 9.70185 47.8398 0.272984
    endloop
  endfacet
  facet normal 0.580237 -0.814447 5.02038e-05
    outer loop
      vertex 10.6491 48.5146 -0.538157
      vertex 9.70185 47.8398 0.272984
      vertex 8.7546 47.1649 -0.538157
    endloop
  endfacet
  facet normal 0.580272 -0.814423 0
    outer loop
      vertex 9.39643 47.6222 0.272984
      vertex 8.7546 47.1649 -0.156077
      vertex 8.7546 47.1649 -0.538157
    endloop
  endfacet
  facet normal -0.81447 -0.580205 0
    outer loop
      vertex 8.7546 47.1649 -0.538157
      vertex 8.7546 47.1649 -0.156077
      vertex 8.53291 47.4761 -0.538157
    endloop
  endfacet
  facet normal 0.814458 0.580223 0
    outer loop
      vertex 10.6491 48.5146 -0.156077
      vertex 10.6491 48.5146 -0.538157
      vertex 10.4274 48.8258 -0.538157
    endloop
  endfacet
  facet normal 0.13523 0.805188 0.577395
    outer loop
      vertex 10.2996 48.2656 0.272984
      vertex 10.4274 48.8258 -0.538157
      vertex 9.829 48.9263 -0.538157
    endloop
  endfacet
  facet normal 0.135171 0.805199 0.577393
    outer loop
      vertex 10.6491 48.5146 -0.156077
      vertex 10.4274 48.8258 -0.538157
      vertex 10.2996 48.2656 0.272984
    endloop
  endfacet
  facet normal -0.410358 0.57584 0.707117
    outer loop
      vertex 9.829 48.9263 -0.538157
      vertex 10.0073 48.0573 0.272984
      vertex 10.2996 48.2656 0.272984
    endloop
  endfacet
  facet normal -0.410271 0.575877 0.707138
    outer loop
      vertex 10.0073 48.0573 0.272984
      vertex 9.829 48.9263 -0.538157
      vertex 9.53662 48.718 -0.538157
    endloop
  endfacet
  facet normal 0.495266 0.791775 0.357496
    outer loop
      vertex 9.9178 47.9936 0.538151
      vertex 9.53662 48.718 -0.538157
      vertex 9.2933 48.8702 -0.538157
    endloop
  endfacet
  facet normal 0.495417 0.791721 0.357407
    outer loop
      vertex 9.9178 47.9936 0.538151
      vertex 10.0073 48.0573 0.272984
      vertex 9.53662 48.718 -0.538157
    endloop
  endfacet
  facet normal -0.805227 0.135221 0.577343
    outer loop
      vertex 9.70185 47.8398 0.272984
      vertex 9.2933 48.8702 -0.538157
      vertex 9.2312 48.5004 -0.538157
    endloop
  endfacet
  facet normal -0.805228 0.13522 0.577342
    outer loop
      vertex 9.70185 47.8398 0.272984
      vertex 9.9178 47.9936 0.538151
      vertex 9.2933 48.8702 -0.538157
    endloop
  endfacet
  facet normal 0.135216 0.805219 0.577356
    outer loop
      vertex 9.48589 47.6859 0.538151
      vertex 9.2312 48.5004 -0.538157
      vertex 8.86139 48.5625 -0.538157
    endloop
  endfacet
  facet normal 0.135113 0.805219 0.57738
    outer loop
      vertex 9.48589 47.6859 0.538151
      vertex 9.70185 47.8398 0.272984
      vertex 9.2312 48.5004 -0.538157
    endloop
  endfacet
  facet normal -0.910127 -0.209521 0.357449
    outer loop
      vertex 8.92578 48.2828 -0.538157
      vertex 9.39643 47.6222 0.272984
      vertex 8.86139 48.5625 -0.538157
    endloop
  endfacet
  facet normal -0.910136 -0.20957 0.357399
    outer loop
      vertex 9.39643 47.6222 0.272984
      vertex 9.48589 47.6859 0.538151
      vertex 8.86139 48.5625 -0.538157
    endloop
  endfacet
  facet normal -0.410296 0.575912 0.707094
    outer loop
      vertex 8.92578 48.2828 -0.538157
      vertex 9.10405 47.4139 0.272984
      vertex 9.39643 47.6222 0.272984
    endloop
  endfacet
  facet normal -0.410307 0.575907 0.707092
    outer loop
      vertex 9.10405 47.4139 0.272984
      vertex 8.92578 48.2828 -0.538157
      vertex 8.63341 48.0745 -0.538157
    endloop
  endfacet
  facet normal -0.805219 0.135235 0.577351
    outer loop
      vertex 8.7546 47.1649 -0.156077
      vertex 8.63341 48.0745 -0.538157
      vertex 8.53291 47.4761 -0.538157
    endloop
  endfacet
  facet normal -0.805227 0.13523 0.577341
    outer loop
      vertex 8.7546 47.1649 -0.156077
      vertex 9.10405 47.4139 0.272984
      vertex 8.63341 48.0745 -0.538157
    endloop
  endfacet
  facet normal 0 0 -1
    outer loop
      vertex 0.709529 34.2825 -0.538157
      vertex 1.20719 33.5359 -0.538157
      vertex 1.0293 33.1978 -0.538157
    endloop
  endfacet
  facet normal 0 0 -1
    outer loop
      vertex 1.20719 33.5359 -0.538157
      vertex 0.709529 34.2825 -0.538157
      vertex 1.02723 34.1154 -0.538157
    endloop
  endfacet
  facet normal 0 0 -1
    outer loop
      vertex 1.0293 33.1978 -0.538157
      vertex 0.377652 34.4571 -0.538157
      vertex 0.709529 34.2825 -0.538157
    endloop
  endfacet
  facet normal 0 0 -1
    outer loop
      vertex 0.377652 34.4571 -0.538157
      vertex 0.0457754 34.6317 -0.538157
      vertex 0.266448 34.8153 -0.538157
    endloop
  endfacet
  facet normal 0 0 -1
    outer loop
      vertex -1.0293 34.2808 -0.538157
      vertex 0.377652 34.4571 -0.538157
      vertex 1.0293 33.1978 -0.538157
    endloop
  endfacet
  facet normal -0 0 -1
    outer loop
      vertex 0.377652 34.4571 -0.538157
      vertex -1.0293 34.2808 -0.538157
      vertex 0.0457754 34.6317 -0.538157
    endloop
  endfacet
  facet normal 0 -0 -1
    outer loop
      vertex -0.851407 34.6189 -0.538157
      vertex 0.0457754 34.6317 -0.538157
      vertex -1.0293 34.2808 -0.538157
    endloop
  endfacet
  facet normal -0 0 -1
    outer loop
      vertex 0.0457754 34.6317 -0.538157
      vertex -0.851407 34.6189 -0.538157
      vertex -0.271921 34.7989 -0.538157
    endloop
  endfacet
  facet normal 0 0 -1
    outer loop
      vertex 0.73577 34.5684 -0.538157
      vertex 0.709529 34.2825 -0.538157
      vertex 0.377652 34.4571 -0.538157
    endloop
  endfacet
  facet normal -0.465583 -0.885004 0
    outer loop
      vertex 1.0293 33.1978 -0.538157
      vertex 1.0293 33.1978 -0.156077
      vertex 0.331877 33.5647 0.272984
    endloop
  endfacet
  facet normal -0.465509 -0.885043 -0.000153529
    outer loop
      vertex -0.331877 33.9139 0.272984
      vertex -0.649574 34.081 0.272984
      vertex -1.0293 34.2808 -0.156077
    endloop
  endfacet
  facet normal -0.465596 -0.884997 1.44141e-05
    outer loop
      vertex 0 33.7393 0.272984
      vertex -0.331877 33.9139 0.272984
      vertex -1.0293 34.2808 -0.538157
    endloop
  endfacet
  facet normal -0.465596 -0.884997 -0.000181159
    outer loop
      vertex 0 33.7393 0.272984
      vertex -0.23466 33.8627 0.538151
      vertex -0.331877 33.9139 0.272984
    endloop
  endfacet
  facet normal -0.465596 -0.884997 -0.000152592
    outer loop
      vertex 0.331877 33.5647 0.272984
      vertex 0.23466 33.6158 0.538151
      vertex 0 33.7393 0.272984
    endloop
  endfacet
  facet normal -0.465727 -0.884928 -0.000299255
    outer loop
      vertex 1.0293 33.1978 -0.156077
      vertex 0.649574 33.3975 0.272984
      vertex 0.331877 33.5647 0.272984
    endloop
  endfacet
  facet normal -0.465596 -0.884997 -1.44141e-05
    outer loop
      vertex 1.0293 33.1978 -0.538157
      vertex 0.331877 33.5647 0.272984
      vertex 0 33.7393 0.272984
    endloop
  endfacet
  facet normal -0.465587 -0.885002 0
    outer loop
      vertex 1.0293 33.1978 -0.538157
      vertex 0 33.7393 0.272984
      vertex -1.0293 34.2808 -0.538157
    endloop
  endfacet
  facet normal -0.465583 -0.885004 0
    outer loop
      vertex -0.331877 33.9139 0.272984
      vertex -1.0293 34.2808 -0.156077
      vertex -1.0293 34.2808 -0.538157
    endloop
  endfacet
  facet normal -0.884977 0.465635 0
    outer loop
      vertex -1.0293 34.2808 -0.156077
      vertex -0.851407 34.6189 -0.538157
      vertex -1.0293 34.2808 -0.538157
    endloop
  endfacet
  facet normal 0.88498 -0.465629 0
    outer loop
      vertex 1.20719 33.5359 -0.538157
      vertex 1.0293 33.1978 -0.156077
      vertex 1.0293 33.1978 -0.538157
    endloop
  endfacet
  facet normal 0.779758 0.242149 0.577358
    outer loop
      vertex 1.20719 33.5359 -0.538157
      vertex 1.02723 34.1154 -0.538157
      vertex 0.649574 33.3975 0.272984
    endloop
  endfacet
  facet normal 0.779743 0.2422 0.577356
    outer loop
      vertex 1.0293 33.1978 -0.156077
      vertex 1.20719 33.5359 -0.538157
      vertex 0.649574 33.3975 0.272984
    endloop
  endfacet
  facet normal 0.329154 0.625809 0.707121
    outer loop
      vertex 0.709529 34.2825 -0.538157
      vertex 0.649574 33.3975 0.272984
      vertex 1.02723 34.1154 -0.538157
    endloop
  endfacet
  facet normal 0.32933 0.625761 0.707082
    outer loop
      vertex 0.649574 33.3975 0.272984
      vertex 0.709529 34.2825 -0.538157
      vertex 0.331877 33.5647 0.272984
    endloop
  endfacet
  facet normal 0.930022 -0.085361 0.357452
    outer loop
      vertex 0.709529 34.2825 -0.538157
      vertex 0.73577 34.5684 -0.538157
      vertex 0.23466 33.6158 0.538151
    endloop
  endfacet
  facet normal 0.930027 -0.0854013 0.357429
    outer loop
      vertex 0.331877 33.5647 0.272984
      vertex 0.709529 34.2825 -0.538157
      vertex 0.23466 33.6158 0.538151
    endloop
  endfacet
  facet normal -0.242353 0.779793 0.577224
    outer loop
      vertex 0.73577 34.5684 -0.538157
      vertex 0.377652 34.4571 -0.538157
      vertex 0 33.7393 0.272984
    endloop
  endfacet
  facet normal -0.242096 0.77974 0.577403
    outer loop
      vertex 0.23466 33.6158 0.538151
      vertex 0.73577 34.5684 -0.538157
      vertex 0 33.7393 0.272984
    endloop
  endfacet
  facet normal 0.7798 0.242091 0.577325
    outer loop
      vertex 0.377652 34.4571 -0.538157
      vertex 0.266448 34.8153 -0.538157
      vertex -0.23466 33.8627 0.538151
    endloop
  endfacet
  facet normal 0.779757 0.242175 0.577347
    outer loop
      vertex 0 33.7393 0.272984
      vertex 0.377652 34.4571 -0.538157
      vertex -0.23466 33.8627 0.538151
    endloop
  endfacet
  facet normal -0.597374 0.717996 0.357247
    outer loop
      vertex 0.266448 34.8153 -0.538157
      vertex 0.0457754 34.6317 -0.538157
      vertex -0.331877 33.9139 0.272984
    endloop
  endfacet
  facet normal -0.597084 0.718083 0.357558
    outer loop
      vertex -0.23466 33.8627 0.538151
      vertex 0.266448 34.8153 -0.538157
      vertex -0.331877 33.9139 0.272984
    endloop
  endfacet
  facet normal 0.329313 0.625726 0.707121
    outer loop
      vertex 0.0457754 34.6317 -0.538157
      vertex -0.271921 34.7989 -0.538157
      vertex -0.649574 34.081 0.272984
    endloop
  endfacet
  facet normal 0.329176 0.625842 0.707082
    outer loop
      vertex -0.331877 33.9139 0.272984
      vertex 0.0457754 34.6317 -0.538157
      vertex -0.649574 34.081 0.272984
    endloop
  endfacet
  facet normal -0.242222 0.779803 0.577266
    outer loop
      vertex -0.271921 34.7989 -0.538157
      vertex -0.851407 34.6189 -0.538157
      vertex -1.0293 34.2808 -0.156077
    endloop
  endfacet
  facet normal -0.242123 0.779745 0.577385
    outer loop
      vertex -0.649574 34.081 0.272984
      vertex -0.271921 34.7989 -0.538157
      vertex -1.0293 34.2808 -0.156077
    endloop
  endfacet
  facet normal -0 0 -1
    outer loop
      vertex -10.1725 47.1791 -0.538157
      vertex -10.5423 47.117 -0.538157
      vertex -10.4779 47.3967 -0.538157
    endloop
  endfacet
  facet normal 0 0 -1
    outer loop
      vertex -9.86707 46.9615 -0.538157
      vertex -8.97629 46.8537 -0.538157
      vertex -9.5747 46.7532 -0.538157
    endloop
  endfacet
  facet normal 0 0 -1
    outer loop
      vertex -8.97629 46.8537 -0.538157
      vertex -9.86707 46.9615 -0.538157
      vertex -8.7546 47.1649 -0.538157
    endloop
  endfacet
  facet normal 0 0 -1
    outer loop
      vertex -10.1725 47.1791 -0.538157
      vertex -9.86707 46.9615 -0.538157
      vertex -10.1104 46.8093 -0.538157
    endloop
  endfacet
  facet normal 0 0 -1
    outer loop
      vertex -10.1725 47.1791 -0.538157
      vertex -8.7546 47.1649 -0.538157
      vertex -9.86707 46.9615 -0.538157
    endloop
  endfacet
  facet normal 0 0 -1
    outer loop
      vertex -10.6491 48.5146 -0.538157
      vertex -10.1725 47.1791 -0.538157
      vertex -10.4779 47.3967 -0.538157
    endloop
  endfacet
  facet normal 0 0 -1
    outer loop
      vertex -10.1725 47.1791 -0.538157
      vertex -10.6491 48.5146 -0.538157
      vertex -8.7546 47.1649 -0.538157
    endloop
  endfacet
  facet normal 0 0 -1
    outer loop
      vertex -10.8708 48.2034 -0.538157
      vertex -10.4779 47.3967 -0.538157
      vertex -10.7703 47.605 -0.538157
    endloop
  endfacet
  facet normal 0 0 -1
    outer loop
      vertex -10.4779 47.3967 -0.538157
      vertex -10.8708 48.2034 -0.538157
      vertex -10.6491 48.5146 -0.538157
    endloop
  endfacet
  facet normal 0.58029 0.81441 0
    outer loop
      vertex -10.6491 48.5146 -0.156077
      vertex -10.0073 48.0573 0.272984
      vertex -10.6491 48.5146 -0.538157
    endloop
  endfacet
  facet normal 0.580236 0.814448 -7.91083e-05
    outer loop
      vertex -9.10405 47.4139 0.272984
      vertex -8.7546 47.1649 -0.156077
      vertex -9.39643 47.6222 0.272984
    endloop
  endfacet
  facet normal 0.580254 0.814436 -2.09018e-05
    outer loop
      vertex -9.39643 47.6222 0.272984
      vertex -8.7546 47.1649 -0.538157
      vertex -9.70185 47.8398 0.272984
    endloop
  endfacet
  facet normal 0.580254 0.814436 0.000113053
    outer loop
      vertex -9.48589 47.6859 0.538151
      vertex -9.39643 47.6222 0.272984
      vertex -9.70185 47.8398 0.272984
    endloop
  endfacet
  facet normal 0.580039 0.814588 -9.137e-05
    outer loop
      vertex -9.9178 47.9936 0.538151
      vertex -9.70185 47.8398 0.272984
      vertex -10.0073 48.0573 0.272984
    endloop
  endfacet
  facet normal 0.580342 0.814373 -0.000117856
    outer loop
      vertex -10.2996 48.2656 0.272984
      vertex -10.0073 48.0573 0.272984
      vertex -10.6491 48.5146 -0.156077
    endloop
  endfacet
  facet normal 0.580039 0.814588 0.00029848
    outer loop
      vertex -10.0073 48.0573 0.272984
      vertex -9.70185 47.8398 0.272984
      vertex -10.6491 48.5146 -0.538157
    endloop
  endfacet
  facet normal 0.580237 0.814447 -5.02038e-05
    outer loop
      vertex -9.70185 47.8398 0.272984
      vertex -8.7546 47.1649 -0.538157
      vertex -10.6491 48.5146 -0.538157
    endloop
  endfacet
  facet normal 0.580272 0.814423 0
    outer loop
      vertex -8.7546 47.1649 -0.156077
      vertex -8.7546 47.1649 -0.538157
      vertex -9.39643 47.6222 0.272984
    endloop
  endfacet
  facet normal 0.81447 -0.580205 0
    outer loop
      vertex -8.7546 47.1649 -0.538157
      vertex -8.7546 47.1649 -0.156077
      vertex -8.97629 46.8537 -0.538157
    endloop
  endfacet
  facet normal -0.814458 0.580223 0
    outer loop
      vertex -10.6491 48.5146 -0.156077
      vertex -10.6491 48.5146 -0.538157
      vertex -10.8708 48.2034 -0.538157
    endloop
  endfacet
  facet normal -0.805196 -0.135231 0.577383
    outer loop
      vertex -10.7703 47.605 -0.538157
      vertex -10.2996 48.2656 0.272984
      vertex -10.8708 48.2034 -0.538157
    endloop
  endfacet
  facet normal -0.805191 -0.135268 0.577382
    outer loop
      vertex -10.2996 48.2656 0.272984
      vertex -10.6491 48.5146 -0.156077
      vertex -10.8708 48.2034 -0.538157
    endloop
  endfacet
  facet normal -0.410378 -0.575869 0.707082
    outer loop
      vertex -10.2996 48.2656 0.272984
      vertex -10.4779 47.3967 -0.538157
      vertex -10.0073 48.0573 0.272984
    endloop
  endfacet
  facet normal -0.41027 -0.575915 0.707107
    outer loop
      vertex -10.4779 47.3967 -0.538157
      vertex -10.2996 48.2656 0.272984
      vertex -10.7703 47.605 -0.538157
    endloop
  endfacet
  facet normal -0.910135 0.209555 0.35741
    outer loop
      vertex -9.9178 47.9936 0.538151
      vertex -10.4779 47.3967 -0.538157
      vertex -10.5423 47.117 -0.538157
    endloop
  endfacet
  facet normal -0.910136 0.209402 0.357496
    outer loop
      vertex -9.9178 47.9936 0.538151
      vertex -10.0073 48.0573 0.272984
      vertex -10.4779 47.3967 -0.538157
    endloop
  endfacet
  facet normal 0.135214 -0.80519 0.577397
    outer loop
      vertex -10.1725 47.1791 -0.538157
      vertex -9.70185 47.8398 0.272984
      vertex -10.5423 47.117 -0.538157
    endloop
  endfacet
  facet normal 0.135363 -0.805242 0.577289
    outer loop
      vertex -9.70185 47.8398 0.272984
      vertex -9.9178 47.9936 0.538151
      vertex -10.5423 47.117 -0.538157
    endloop
  endfacet
  facet normal -0.805224 -0.13522 0.577348
    outer loop
      vertex -10.1104 46.8093 -0.538157
      vertex -9.48589 47.6859 0.538151
      vertex -10.1725 47.1791 -0.538157
    endloop
  endfacet
  facet normal -0.805233 -0.135193 0.577341
    outer loop
      vertex -9.48589 47.6859 0.538151
      vertex -9.70185 47.8398 0.272984
      vertex -10.1725 47.1791 -0.538157
    endloop
  endfacet
  facet normal 0.495237 -0.791761 0.357568
    outer loop
      vertex -9.86707 46.9615 -0.538157
      vertex -9.39643 47.6222 0.272984
      vertex -10.1104 46.8093 -0.538157
    endloop
  endfacet
  facet normal 0.495452 -0.791727 0.357345
    outer loop
      vertex -9.39643 47.6222 0.272984
      vertex -9.48589 47.6859 0.538151
      vertex -10.1104 46.8093 -0.538157
    endloop
  endfacet
  facet normal -0.410276 -0.575883 0.70713
    outer loop
      vertex -9.39643 47.6222 0.272984
      vertex -9.5747 46.7532 -0.538157
      vertex -9.10405 47.4139 0.272984
    endloop
  endfacet
  facet normal -0.410286 -0.575878 0.707127
    outer loop
      vertex -9.5747 46.7532 -0.538157
      vertex -9.39643 47.6222 0.272984
      vertex -9.86707 46.9615 -0.538157
    endloop
  endfacet
  facet normal 0.13523 -0.805207 0.577369
    outer loop
      vertex -8.97629 46.8537 -0.538157
      vertex -8.7546 47.1649 -0.156077
      vertex -9.5747 46.7532 -0.538157
    endloop
  endfacet
  facet normal 0.135207 -0.805188 0.5774
    outer loop
      vertex -8.7546 47.1649 -0.156077
      vertex -9.10405 47.4139 0.272984
      vertex -9.5747 46.7532 -0.538157
    endloop
  endfacet
endsolid OpenSCAD_Model
